<mxfile host="app.diagrams.net" modified="2023-10-11T15:02:03.328Z" agent="Mozilla/5.0 (Windows NT 10.0; Win64; x64; rv:109.0) Gecko/20100101 Firefox/118.0" etag="qUthm_g4PdONMLaqd8ge" version="22.0.4" type="github">
  <diagram name="Page-1" id="gVV-lAtCTAZQ4N9Vdqxv">
    <mxGraphModel dx="2538" dy="653" grid="1" gridSize="10" guides="1" tooltips="1" connect="1" arrows="1" fold="1" page="1" pageScale="1" pageWidth="850" pageHeight="1100" math="0" shadow="0">
      <root>
        <mxCell id="0" />
        <mxCell id="1" parent="0" />
        <mxCell id="OSJg8APtaKK_bbcxg1oc-6" value="" style="edgeStyle=orthogonalEdgeStyle;rounded=0;orthogonalLoop=1;jettySize=auto;html=1;" edge="1" parent="1" source="OSJg8APtaKK_bbcxg1oc-1" target="OSJg8APtaKK_bbcxg1oc-2">
          <mxGeometry relative="1" as="geometry" />
        </mxCell>
        <mxCell id="OSJg8APtaKK_bbcxg1oc-7" value="" style="edgeStyle=orthogonalEdgeStyle;rounded=0;orthogonalLoop=1;jettySize=auto;html=1;" edge="1" parent="1" source="OSJg8APtaKK_bbcxg1oc-1" target="OSJg8APtaKK_bbcxg1oc-2">
          <mxGeometry relative="1" as="geometry" />
        </mxCell>
        <mxCell id="OSJg8APtaKK_bbcxg1oc-9" value="" style="edgeStyle=orthogonalEdgeStyle;rounded=0;orthogonalLoop=1;jettySize=auto;html=1;" edge="1" parent="1" source="OSJg8APtaKK_bbcxg1oc-1" target="OSJg8APtaKK_bbcxg1oc-3">
          <mxGeometry relative="1" as="geometry">
            <Array as="points">
              <mxPoint x="400" y="160" />
              <mxPoint x="520" y="160" />
            </Array>
          </mxGeometry>
        </mxCell>
        <mxCell id="OSJg8APtaKK_bbcxg1oc-1" value="Hazard Identification" style="rounded=0;whiteSpace=wrap;html=1;" vertex="1" parent="1">
          <mxGeometry x="340" y="80" width="120" height="60" as="geometry" />
        </mxCell>
        <mxCell id="OSJg8APtaKK_bbcxg1oc-2" value="Identification of mandatory operation" style="rounded=1;whiteSpace=wrap;html=1;" vertex="1" parent="1">
          <mxGeometry x="220" y="180" width="120" height="60" as="geometry" />
        </mxCell>
        <mxCell id="OSJg8APtaKK_bbcxg1oc-24" style="edgeStyle=orthogonalEdgeStyle;rounded=0;orthogonalLoop=1;jettySize=auto;html=1;entryX=0.5;entryY=0;entryDx=0;entryDy=0;" edge="1" parent="1" source="OSJg8APtaKK_bbcxg1oc-3" target="OSJg8APtaKK_bbcxg1oc-4">
          <mxGeometry relative="1" as="geometry">
            <Array as="points">
              <mxPoint x="520" y="320" />
              <mxPoint x="400" y="320" />
            </Array>
          </mxGeometry>
        </mxCell>
        <mxCell id="OSJg8APtaKK_bbcxg1oc-3" value="Identification of environmental risk" style="rounded=1;whiteSpace=wrap;html=1;" vertex="1" parent="1">
          <mxGeometry x="460" y="180" width="120" height="60" as="geometry" />
        </mxCell>
        <mxCell id="OSJg8APtaKK_bbcxg1oc-4" value="Classification of stakeholders" style="rounded=1;whiteSpace=wrap;html=1;" vertex="1" parent="1">
          <mxGeometry x="340" y="345" width="120" height="60" as="geometry" />
        </mxCell>
        <mxCell id="OSJg8APtaKK_bbcxg1oc-11" value="" style="edgeStyle=orthogonalEdgeStyle;rounded=0;orthogonalLoop=1;jettySize=auto;html=1;" edge="1" parent="1" source="OSJg8APtaKK_bbcxg1oc-5" target="OSJg8APtaKK_bbcxg1oc-10">
          <mxGeometry relative="1" as="geometry">
            <Array as="points">
              <mxPoint x="-30" y="460" />
              <mxPoint x="-150" y="460" />
            </Array>
          </mxGeometry>
        </mxCell>
        <mxCell id="OSJg8APtaKK_bbcxg1oc-13" value="" style="edgeStyle=orthogonalEdgeStyle;rounded=0;orthogonalLoop=1;jettySize=auto;html=1;" edge="1" parent="1" source="OSJg8APtaKK_bbcxg1oc-5" target="OSJg8APtaKK_bbcxg1oc-12">
          <mxGeometry relative="1" as="geometry">
            <Array as="points">
              <mxPoint x="-30" y="460" />
              <mxPoint x="90" y="460" />
            </Array>
          </mxGeometry>
        </mxCell>
        <mxCell id="OSJg8APtaKK_bbcxg1oc-5" value="Separation into Physical and Digital" style="rounded=0;whiteSpace=wrap;html=1;" vertex="1" parent="1">
          <mxGeometry x="-90" y="370" width="120" height="60" as="geometry" />
        </mxCell>
        <mxCell id="OSJg8APtaKK_bbcxg1oc-10" value="Physical" style="rhombus;whiteSpace=wrap;html=1;rounded=0;" vertex="1" parent="1">
          <mxGeometry x="-190" y="490" width="80" height="80" as="geometry" />
        </mxCell>
        <mxCell id="OSJg8APtaKK_bbcxg1oc-12" value="Digital" style="rhombus;whiteSpace=wrap;html=1;rounded=0;" vertex="1" parent="1">
          <mxGeometry x="50" y="490" width="80" height="80" as="geometry" />
        </mxCell>
        <mxCell id="OSJg8APtaKK_bbcxg1oc-22" value="" style="edgeStyle=orthogonalEdgeStyle;rounded=0;orthogonalLoop=1;jettySize=auto;html=1;" edge="1" parent="1" source="OSJg8APtaKK_bbcxg1oc-14" target="OSJg8APtaKK_bbcxg1oc-4">
          <mxGeometry relative="1" as="geometry">
            <Array as="points">
              <mxPoint x="280" y="320" />
              <mxPoint x="400" y="320" />
            </Array>
          </mxGeometry>
        </mxCell>
        <mxCell id="OSJg8APtaKK_bbcxg1oc-14" value="Initial comparison to ODM" style="shape=parallelogram;perimeter=parallelogramPerimeter;whiteSpace=wrap;html=1;fixedSize=1;size=0;" vertex="1" parent="1">
          <mxGeometry x="220" y="240" width="120" height="50" as="geometry" />
        </mxCell>
        <mxCell id="OSJg8APtaKK_bbcxg1oc-28" style="edgeStyle=orthogonalEdgeStyle;rounded=0;orthogonalLoop=1;jettySize=auto;html=1;entryX=0.5;entryY=0;entryDx=0;entryDy=0;" edge="1" parent="1" source="OSJg8APtaKK_bbcxg1oc-16" target="OSJg8APtaKK_bbcxg1oc-25">
          <mxGeometry relative="1" as="geometry" />
        </mxCell>
        <mxCell id="OSJg8APtaKK_bbcxg1oc-29" style="edgeStyle=orthogonalEdgeStyle;rounded=0;orthogonalLoop=1;jettySize=auto;html=1;" edge="1" parent="1" source="OSJg8APtaKK_bbcxg1oc-16" target="OSJg8APtaKK_bbcxg1oc-27">
          <mxGeometry relative="1" as="geometry" />
        </mxCell>
        <mxCell id="OSJg8APtaKK_bbcxg1oc-16" value="Exploration of both the AS&#39; operation and surroundings" style="shape=parallelogram;perimeter=parallelogramPerimeter;whiteSpace=wrap;html=1;fixedSize=1;size=0;" vertex="1" parent="1">
          <mxGeometry x="340" y="405" width="120" height="45" as="geometry" />
        </mxCell>
        <mxCell id="OSJg8APtaKK_bbcxg1oc-19" value="Physical Exploration" style="rounded=0;whiteSpace=wrap;html=1;" vertex="1" parent="1">
          <mxGeometry x="460" y="240" width="60" height="50" as="geometry" />
        </mxCell>
        <mxCell id="OSJg8APtaKK_bbcxg1oc-20" value="Theoretical Exploration" style="rounded=0;whiteSpace=wrap;html=1;" vertex="1" parent="1">
          <mxGeometry x="520" y="240" width="60" height="50" as="geometry" />
        </mxCell>
        <mxCell id="OSJg8APtaKK_bbcxg1oc-25" value="Hazard Relation" style="rounded=1;whiteSpace=wrap;html=1;" vertex="1" parent="1">
          <mxGeometry x="240" y="500" width="120" height="40" as="geometry" />
        </mxCell>
        <mxCell id="OSJg8APtaKK_bbcxg1oc-27" value="componentization" style="rounded=1;whiteSpace=wrap;html=1;" vertex="1" parent="1">
          <mxGeometry x="430" y="500" width="120" height="40" as="geometry" />
        </mxCell>
        <mxCell id="OSJg8APtaKK_bbcxg1oc-31" value="&lt;p style=&quot;line-height: 90%;&quot;&gt;&lt;font face=&quot;Verdana&quot; style=&quot;font-size: 9px;&quot;&gt;Theoretical exploration allows for the identification of hazards that would not show up in a typical dataset&lt;/font&gt;&lt;/p&gt;" style="text;html=1;strokeColor=none;fillColor=none;align=center;verticalAlign=middle;whiteSpace=wrap;rounded=0;" vertex="1" parent="1">
          <mxGeometry x="580" y="245" width="150" height="40" as="geometry" />
        </mxCell>
        <mxCell id="OSJg8APtaKK_bbcxg1oc-34" value="Discarding non-hazards" style="shape=parallelogram;perimeter=parallelogramPerimeter;whiteSpace=wrap;html=1;fixedSize=1;size=0;" vertex="1" parent="1">
          <mxGeometry x="240" y="540" width="120" height="50" as="geometry" />
        </mxCell>
      </root>
    </mxGraphModel>
  </diagram>
</mxfile>
